<svg xmlns="http://www.w3.org/2000/svg" xmlns:xlink="http://www.w3.org/1999/xlink" width="23.059" height="24.001" viewBox="0 0 23.059 24.001">
  <defs>
    <clipPath id="clip-path">
      <rect width="23.059" height="24.001" fill="none"/>
    </clipPath>
  </defs>
  <g id="Repeat_Grid_1" data-name="Repeat Grid 1" clip-path="url(#clip-path)">
    <g transform="translate(-384 -35)">
      <path id="bell-notification-social-media" d="M20,8a4,4,0,1,0-4-4A4,4,0,0,0,20,8Zm0-6a2,2,0,1,1-2,2A2,2,0,0,1,20,2Zm1.868,8.3a1,1,0,0,0-1.947.457l1.057,4.489a2.144,2.144,0,0,1-.365,1.893,2.184,2.184,0,0,1-1.748.86H5.135a2.188,2.188,0,0,1-1.712-.815A2.133,2.133,0,0,1,2.984,15.4L5.078,7.622a7.234,7.234,0,0,1,8.331-5.507A1,1,0,0,0,13.766.146a9.234,9.234,0,0,0-10.63,7L1.042,14.92A4.179,4.179,0,0,0,5.135,20H7.1a5,5,0,0,0,9.8,0h1.965A4.17,4.17,0,0,0,22.2,18.355a4.1,4.1,0,0,0,.713-3.6L21.868,10.3ZM12,22a3,3,0,0,1-2.816-2h5.631A3,3,0,0,1,12,22Z" transform="translate(383.059 35)" fill="#f39843"/>
    </g>
  </g>
</svg>
