<svg id="exchange" xmlns="http://www.w3.org/2000/svg" width="18.192" height="15.068" viewBox="0 0 18.192 15.068">
  <path id="Path_6" data-name="Path 6" d="M.758,3.054h15.4l-.011-.011-1.7-1.732A.758.758,0,1,1,15.529.249l1.7,1.726c.124.124.3.313.473.512a1.962,1.962,0,0,1,0,2.6c-.177.2-.349.388-.468.508l-1.7,1.731a.758.758,0,0,1-1.081-1.061L16.112,4.57H.758a.758.758,0,0,1,0-1.516Z" transform="translate(0 7.536)" fill="#52504a"/>
  <path id="Path_7" data-name="Path 7" d="M17.433,4.526H2.08L3.743,6.219A.758.758,0,1,1,2.662,7.28L.965,5.552c-.124-.124-.3-.313-.473-.512a1.962,1.962,0,0,1,0-2.6c.177-.2.349-.389.468-.508L2.662.206A.758.758,0,0,1,3.743,1.267L2.037,3l-.006.008h15.4a.758.758,0,0,1,0,1.516Z" transform="translate(0 0)" fill="#52504a"/>
</svg>
