<svg id="_01_align_center" xmlns="http://www.w3.org/2000/svg" width="26" height="29.692" viewBox="0 0 26 29.692">
  <path id="Path_31" data-name="Path 31" d="M50.439,5.946c-1.486-1.259-3.016-2.565-4.565-4.109L44.992.96l-.867.878c-2.788,2.8-4.105,7.088-4.677,9.663a7.47,7.47,0,0,1-.962-2.206l-.524-2.022L36.439,8.7c-2.668,2.5-4.447,4.989-4.447,8.968a12.876,12.876,0,0,0,9.637,12.574,13.726,13.726,0,0,0,2.552.371c.283.02,1.092.041,1.231.032a12.97,12.97,0,0,0,12.58-12.975C57.992,12.359,54.492,9.388,50.439,5.946ZM45.232,28.158c-.13.011-.247.012-.379.011a4.294,4.294,0,0,1-4.162-4.281c0-1.569.841-2.351,2.746-3.972.48-.408,1-.853,1.552-1.361.481.437.949.833,1.381,1.2,1.913,1.623,2.911,2.545,2.911,4.129A4.289,4.289,0,0,1,45.232,28.158Zm6.211-2.191-.025.017a6.747,6.747,0,0,0,.337-2.1c0-2.8-1.839-4.364-3.784-6.016-.689-.584-1.4-1.188-2.111-1.9l-.876-.875-.875.875c-.8.8-1.586,1.469-2.278,2.058-1.94,1.651-3.617,3.077-3.617,5.856a6.734,6.734,0,0,0,.371,2.181,10.536,10.536,0,0,1-4.119-8.407A8.212,8.212,0,0,1,36.8,11.847a9.589,9.589,0,0,0,.926,1.508,2.227,2.227,0,0,0,2.3.843,2.3,2.3,0,0,0,1.748-1.769A20.265,20.265,0,0,1,45.061,4.51c1.305,1.237,2.6,2.332,3.765,3.324,3.875,3.291,6.682,5.669,6.682,9.837a10.457,10.457,0,0,1-4.066,8.3h0Z" transform="translate(-31.992 -0.96)" fill="#f18724"/>
</svg>
