<svg xmlns="http://www.w3.org/2000/svg" width="16.584" height="22.112" viewBox="0 0 16.584 22.112">
  <path id="hotel" d="M16.82,0H5.764A2.767,2.767,0,0,0,3,2.764V22.112H9.449V16.584H6.685V14.742H15.9v1.843H13.135v5.528h6.449V2.764A2.767,2.767,0,0,0,16.82,0ZM8.528,12.9H6.685V11.056H8.528Zm0-3.685H6.685V7.371H8.528Zm0-3.685H6.685V3.685H8.528ZM12.214,12.9H10.371V11.056h1.843Zm0-3.685H10.371V7.371h1.843Zm0-3.685H10.371V3.685h1.843ZM15.9,12.9H14.056V11.056H15.9Zm0-3.685H14.056V7.371H15.9Zm0-3.685H14.056V3.685H15.9Z" transform="translate(-3)" fill="#fff"/>
</svg>
