<svg xmlns="http://www.w3.org/2000/svg" width="37.036" height="34.399" viewBox="0 0 37.036 34.399">
  <path id="plane" d="M26.332,10.692H22.184L16.858,1.671A3.9,3.9,0,0,0,13.554,0h-.228a3.521,3.521,0,0,0-2.64,1.121,2.485,2.485,0,0,0-.533,2.473l2.418,7.1H9.581a4.091,4.091,0,0,1-2.661-.94L5.143,8.233A3.42,3.42,0,0,0,1.614,7.77,2.612,2.612,0,0,0,.151,9.291a2.352,2.352,0,0,0,.286,2.1l2.024,3.021a6.546,6.546,0,0,0,5.444,2.694H12.56l-2.092,4.755a2.466,2.466,0,0,0,.376,2.589,3.492,3.492,0,0,0,2.71,1.21,3.88,3.88,0,0,0,3.267-1.618L21.9,17.108h4.435A3.518,3.518,0,0,0,30.094,13.9,3.518,3.518,0,0,0,26.332,10.692ZM12.567,3a.6.6,0,0,1,.127-.592.843.843,0,0,1,.631-.269h.228a1.3,1.3,0,0,1,1.082.525l4.741,8.029h-4.2Zm13.764,11.97H21.2a1.316,1.316,0,0,0-1.064.5l-5.482,7.493a1.3,1.3,0,0,1-1.1.557.834.834,0,0,1-.648-.289.589.589,0,0,1-.089-.619l2.727-6.2a.938.938,0,0,0-.145-.984,1.329,1.329,0,0,0-1.031-.46H7.906a3.917,3.917,0,0,1-3.261-1.617l-2.03-3.022A.487.487,0,0,1,2.555,9.9a.357.357,0,0,1,.2-.226A.625.625,0,0,1,3,9.623a.57.57,0,0,1,.36.126l1.777,1.515a6.822,6.822,0,0,0,4.44,1.566h16.75A1.173,1.173,0,0,1,27.586,13.9,1.173,1.173,0,0,1,26.332,14.969Z" transform="translate(-0.02 10.293) rotate(-20)" fill="#159cd6"/>
</svg>
